<svg width="100%" height="100%" viewBox="0 0 106 38" fill="none" xmlns="http://www.w3.org/2000/svg">
<path d="M38.1143 11.9197C38.1143 11.5024 38.2781 11.1022 38.5696 10.8071C38.8612 10.5121 39.2567 10.3463 39.6691 10.3463C40.0814 10.3463 40.4769 10.5121 40.7685 10.8071C41.06 11.1022 41.2239 11.5024 41.2239 11.9197C41.2239 12.337 41.06 12.7372 40.7685 13.0323C40.4769 13.3273 40.0814 13.4931 39.6691 13.4931C39.2567 13.4931 38.8612 13.3273 38.5696 13.0323C38.2781 12.7372 38.1143 12.337 38.1143 11.9197ZM38.5121 15.8768H40.8281V29.3309H38.5121V15.8768Z" fill="#243746"/>
<path d="M54.7054 21.0695V29.3288H52.3976V21.204C52.3976 18.998 51.1493 17.7604 49.1022 17.7604C46.971 17.7604 45.2457 19.0247 45.2457 22.1992V29.3288H42.9287V15.8748H45.2416V17.8117C46.225 16.225 47.6875 15.5256 49.5488 15.5256C52.6594 15.5276 54.7054 17.6258 54.7054 21.0695Z" fill="#243746"/>
<path d="M60.0678 15.5256V15.8768H63.5427V18.1363H60.0678V29.3308H57.7548V18.1363H55.7129V15.8768H57.7548V15.5256C57.7548 11.9474 59.7745 9.92928 63.5762 10.1984V12.4578C61.2643 12.2699 60.0678 13.185 60.0678 15.5256Z" fill="#243746"/>
<path d="M63.6419 22.6202C63.6339 21.6888 63.8093 20.7651 64.1578 19.903C64.5063 19.0409 65.021 18.2576 65.6718 17.5989C66.3226 16.9403 67.0965 16.4193 67.9484 16.0665C68.8002 15.7137 69.713 15.5361 70.6334 15.544C74.5143 15.544 77.6523 18.6384 77.6523 22.6202C77.6523 26.602 74.5143 29.6954 70.6334 29.6954C66.7525 29.6954 63.6419 26.6 63.6419 22.6202ZM75.3394 22.6202C75.3394 19.9027 73.2924 17.8312 70.6334 17.8312C68.0018 17.8312 65.9548 19.9027 65.9548 22.6202C65.9548 25.3377 68.0018 27.4093 70.6334 27.4093C73.2924 27.4093 75.3394 25.3367 75.3394 22.6202Z" fill="#243746"/>
<path d="M93.2978 22.6028C93.2978 26.5846 90.2673 29.678 86.5721 29.678C84.312 29.678 82.6141 28.651 81.5474 27.0149V29.3288H79.2305V10.5475H81.5434V18.1907C82.607 16.5474 84.3079 15.5276 86.5681 15.5276C90.2633 15.5276 93.2978 18.621 93.2978 22.6028ZM90.9849 22.6028C90.9849 19.8586 88.9378 17.7871 86.2788 17.7871C83.5945 17.7871 81.5474 19.8586 81.5474 22.6028C81.5474 25.347 83.5904 27.4216 86.2748 27.4216C88.9338 27.4216 90.9808 25.347 90.9808 22.6028H90.9849Z" fill="#243746"/>
<path d="M101.38 15.6344V18.0829C99.3854 18.0028 97.2318 19.0246 97.2318 22.1992V29.3288H94.9209V15.8748H97.2338V18.1342C98.0833 16.2537 99.704 15.6344 101.38 15.6344Z" fill="#243746"/>
<path d="M102.916 11.9197C102.916 11.5024 103.08 11.1022 103.371 10.8071C103.663 10.5121 104.058 10.3463 104.471 10.3463C104.883 10.3463 105.279 10.5121 105.57 10.8071C105.862 11.1022 106.026 11.5024 106.026 11.9197C106.026 12.337 105.862 12.7372 105.57 13.0323C105.279 13.3273 104.883 13.4931 104.471 13.4931C104.058 13.4931 103.663 13.3273 103.371 13.0323C103.08 12.7372 102.916 12.337 102.916 11.9197ZM103.315 15.8768H105.628V29.3309H103.315V15.8768Z" fill="#243746"/>
<path d="M26.9309 12.7505C24.6269 9.9453 21.4146 8.05772 17.865 7.42335C17.2333 7.30688 16.5851 7.31792 15.9577 7.45583C15.3303 7.59375 14.736 7.85582 14.209 8.22698C13.682 8.59815 13.2327 9.07107 12.8869 9.61856C12.5412 10.1661 12.3058 10.7773 12.1943 11.4172C12.0828 12.0571 12.0974 12.7129 12.2373 13.3471C12.3771 13.9812 12.6395 14.5811 13.0093 15.1123C13.379 15.6435 13.8489 16.0954 14.3919 16.4422C14.9349 16.789 15.5402 17.0237 16.1732 17.1329C17.4433 17.3568 18.5945 18.0277 19.4234 19.027C20.2524 20.0263 20.7058 21.2899 20.7036 22.5946C20.7036 24.0655 20.1262 25.4761 19.0985 26.5162C18.0707 27.5562 16.6767 28.1405 15.2232 28.1405C13.7698 28.1405 12.3758 27.5562 11.348 26.5162C10.3203 25.4761 9.74288 24.0655 9.74288 22.5946V4.92973C9.74288 3.62228 9.22964 2.36839 8.31607 1.44388C7.40249 0.519381 6.16343 0 4.87144 0C3.57945 0 2.34038 0.519381 1.42681 1.44388C0.51324 2.36839 0 3.62228 0 4.92973V22.5946C0 31.0891 6.82915 38 15.2232 38C23.6173 38 30.4465 31.0891 30.4465 22.5946C30.4444 18.9989 29.2009 15.5169 26.9309 12.7505ZM4.87144 8.52432C4.20905 8.52432 3.56153 8.32555 3.01077 7.95314C2.46001 7.58073 2.03075 7.05141 1.77726 6.43212C1.52377 5.81283 1.45745 5.13138 1.58668 4.47394C1.7159 3.8165 2.03488 3.2126 2.50326 2.73862C2.97164 2.26463 3.56839 1.94184 4.21806 1.81107C4.86772 1.6803 5.54112 1.74741 6.15309 2.00393C6.76506 2.26045 7.28812 2.69485 7.65613 3.2522C8.02413 3.80955 8.22055 4.46482 8.22055 5.13514C8.22055 6.034 7.8677 6.89606 7.23962 7.53165C6.61154 8.16725 5.75968 8.52432 4.87144 8.52432Z" fill="#e43746"/>
</svg>
