<svg width="761" height="159" viewBox="0 0 761 159" fill="none" xmlns="http://www.w3.org/2000/svg">
<g clip-path="url(#clip0_10_39)">
<path d="M937.559 67.7538 827.913 69.9858ZM741.603 130.872L741.616 32.0491H760.783L760.776 130.872H741.603ZM664.747 130.968L623.438 32.1449H644.379L670.63 98.5222L696.875 32.1381H717.816L676.248 130.968H664.747ZM559.243 133.104C547.005 133.097 534.33 130.571 523.566 119.74C520.173 116.344 508.979 103.883 508.993 81.666C509.007 62.5436 517.559 50.8428 523.463 44.9206C530.842 37.3688 543.23 29.8171 562.253 29.8308C569.625 29.8376 577.44 31.0289 584.955 35.0342C591.303 38.2931 598.224 44.2291 603.384 53.1159L586.716 62.1533C583.331 55.478 578.314 52.0684 575.222 50.4321C571.086 48.3575 565.925 47.3169 561.352 47.3169C553.544 47.31 544.691 50.124 538.637 56.0462C533.04 61.5235 528.753 70.9991 528.746 82.1179C528.739 95.2975 534.343 103.164 538.466 107.163C542.889 111.462 549.824 115.618 560.287 115.618C566.779 115.625 574.15 113.852 579.611 109.703C583.44 106.745 587.283 101.713 588.907 94.5991L563.543 94.5854L563.557 77.9826L608.674 78.0168V79.1944C608.674 85.8698 607.78 106.608 594.197 120.089C584.02 130.304 571.488 133.111 559.243 133.104ZM471.944 130.865L416.369 67.9113L416.376 130.879L397.21 130.872L397.217 32.0491H410.493L466.053 94.8456V32.0354H485.226L485.212 130.872L471.944 130.865ZM345.636 32.0491H364.802V130.872H345.636V32.0491ZM261.797 31.9738L280.97 31.9669L281.011 112.633L317.61 112.647V130.804H261.851L261.797 31.9738Z" fill="#2C3143"/>
<path d="M90.5684 21.4897V42.7352L155.436 80.4357L90.5684 118.344V139.382L191.589 80.4357L90.5684 21.4897Z" fill="#fC3143"/>
<path d="M18.885 110.849V32.1153L0.705444 21.4925V142.509L90.5704 90.0198V68.9826L18.885 110.849Z" fill="#fC3143"/>
</g>
<defs>
<clipPath id="clip0_10_39">
<rect width="937" height="158.34" fill="white" transform="translate(0 0.330017)"/>
</clipPath>
</defs>
</svg>
