<?xml version="1.0" encoding="utf-8"?>
<svg version="1.1" id="Layer_1" xmlns="http://www.w3.org/2000/svg" xmlns:xlink="http://www.w3.org/1999/xlink" x="0px" y="0px"
	 viewBox="0 0 200 200.1" style="enable-background:new 0 0 200 200.1;" xml:space="preserve">
<path fill="#c81010" d="M8.6,0C69.4,0,130.2,0,191,0c0.1,0.2,0.2,0.2,0.4,0.2c5.1,0.8,8.6,4.8,8.6,10c0,59.9,0,119.8,0,179.7
	c0,0.8,0,1.6-0.2,2.4c-1.2,4.9-5.1,7.8-10.6,7.8c-59.5,0-118.9,0-178.4,0c-0.4,0-0.9,0-1.3,0c-4.3-0.3-7.8-3-9.1-7.2
	c-0.1-0.3,0-0.7-0.4-0.9C0,130.7,0,69.4,0,8.2C0.4,7.9,0.3,7.4,0.5,7c1.1-3.1,3.2-5.2,6.3-6.4C7.4,0.4,8.1,0.4,8.6,0z M115.2,108.4
	c13.9,0,27.8,0,41.6,0c3.3,0,5.1-1.9,5.1-5.1c0-1.6,0-3.3-0.1-4.9c-0.5-11.6-2.9-22.6-8.3-32.9c-6.6-12.7-16.4-21.9-29.9-27
	c-11.2-4.2-22.8-4.9-34.5-2.8c-20.7,3.7-35.8,15.1-44.6,34.2c-8.6,18.7-8.8,38-1.9,57.3c6,16.8,17.8,28.4,34.7,34.4
	c12.7,4.5,25.7,5,38.9,2.6c20-3.7,33.2-15.6,40.9-34.1c1.3-3.2-0.8-6.3-4.3-6.3c-6.8,0-13.6,0-20.4,0c-1.8,0-3.1,0.8-4,2.3
	c-2.8,5.1-7.2,8.5-12.4,10.8c-8.4,3.8-17,3.8-25.7,1.2c-7.3-2.2-12.3-7-15.2-14c-1.9-4.6-2.6-9.4-3-14.3c-0.1-1,0.2-1.2,1.2-1.2
	C87.4,108.5,101.3,108.4,115.2,108.4z"/>
<path fill="#FFFFFF" d="M115.2,108.4c-13.9,0-27.8,0-41.8,0c-1,0-1.3,0.3-1.2,1.2c0.4,4.9,1.2,9.7,3,14.3c2.9,7.1,7.8,11.9,15.2,14
	c8.7,2.6,17.3,2.6,25.7-1.2c5.2-2.4,9.6-5.7,12.4-10.8c0.8-1.5,2.2-2.3,4-2.3c6.8,0,13.6,0,20.4,0c3.4,0,5.6,3.1,4.3,6.3
	c-7.7,18.5-20.9,30.4-40.9,34.1c-13.2,2.4-26.2,1.9-38.9-2.6c-16.9-6-28.6-17.5-34.7-34.4C35.8,108,36,88.6,44.6,69.9
	c8.8-19.1,23.9-30.5,44.6-34.2c11.7-2.1,23.3-1.4,34.5,2.8c13.5,5,23.3,14.3,29.9,27c5.4,10.3,7.9,21.4,8.3,32.9
	c0.1,1.6,0.1,3.3,0.1,4.9c0,3.3-1.9,5.1-5.1,5.1C142.9,108.4,129.1,108.4,115.2,108.4z M99.8,86.8c8.9,0,17.8,0,26.6,0
	c0.8,0,1.2-0.1,1-1c-0.8-4-1.8-8-3.6-11.8c-3.1-6.7-8.2-11-15.4-12.7c-4.2-1-8.5-1.1-12.7-0.6c-9.4,1.2-16.4,5.8-20.4,14.4
	c-1.5,3.3-2.4,6.8-2.9,10.3c-0.1,1,0,1.3,1.1,1.3C82.2,86.7,91,86.8,99.8,86.8z"/>
<path fill="#c81010" d="M99.8,86.8c-8.8,0-17.6,0-26.4,0c-1.1,0-1.2-0.3-1.1-1.3c0.5-3.6,1.3-7.1,2.9-10.3c4.1-8.7,11.1-13.3,20.4-14.4
	c4.3-0.5,8.5-0.4,12.7,0.6c7.2,1.7,12.3,6.1,15.4,12.7c1.8,3.7,2.8,7.7,3.6,11.8c0.2,0.9-0.2,1-1,1C117.6,86.7,108.7,86.8,99.8,86.8
	z"/>
</svg>
